<mxfile host="app.diagrams.net" modified="2024-05-15T16:32:30.488Z" agent="Mozilla/5.0 (Windows NT 10.0; Win64; x64) AppleWebKit/537.36 (KHTML, like Gecko) Chrome/121.0.0.0 Safari/537.36 OPR/107.0.0.0" etag="QHBIbY_mojZlXTviporU" version="24.4.0" type="device">
  <diagram name="Страница — 1" id="sd-F5-19MWhvHhc4MSQb">
    <mxGraphModel dx="1461" dy="606" grid="1" gridSize="10" guides="1" tooltips="1" connect="1" arrows="1" fold="1" page="1" pageScale="1" pageWidth="827" pageHeight="1169" math="0" shadow="0">
      <root>
        <mxCell id="0" />
        <mxCell id="1" parent="0" />
        <mxCell id="IVcf6RZNReNVsXeys-L7-1" value="&lt;font style=&quot;font-size: 15px;&quot;&gt;Система &quot;Приложение для фитнесс центра&quot;&lt;/font&gt;" style="shape=module;align=left;spacingLeft=20;align=center;verticalAlign=top;whiteSpace=wrap;html=1;" vertex="1" parent="1">
          <mxGeometry x="310" y="60" width="220" height="50" as="geometry" />
        </mxCell>
        <mxCell id="IVcf6RZNReNVsXeys-L7-2" value="Модуль регистрации&amp;nbsp;" style="shape=module;align=left;spacingLeft=20;align=center;verticalAlign=top;whiteSpace=wrap;html=1;" vertex="1" parent="1">
          <mxGeometry x="359" y="190" width="120" height="50" as="geometry" />
        </mxCell>
        <mxCell id="IVcf6RZNReNVsXeys-L7-3" value="Модуль меню клиента" style="shape=module;align=left;spacingLeft=20;align=center;verticalAlign=top;whiteSpace=wrap;html=1;" vertex="1" parent="1">
          <mxGeometry x="150" y="290" width="130" height="60" as="geometry" />
        </mxCell>
        <mxCell id="IVcf6RZNReNVsXeys-L7-4" value="Модуль меню тренера" style="shape=module;align=left;spacingLeft=20;align=center;verticalAlign=top;whiteSpace=wrap;html=1;" vertex="1" parent="1">
          <mxGeometry x="354" y="290" width="130" height="60" as="geometry" />
        </mxCell>
        <mxCell id="IVcf6RZNReNVsXeys-L7-5" value="Модуль меню менеджера/администратора" style="shape=module;align=left;spacingLeft=20;align=center;verticalAlign=top;whiteSpace=wrap;html=1;" vertex="1" parent="1">
          <mxGeometry x="550" y="290" width="130" height="60" as="geometry" />
        </mxCell>
        <mxCell id="IVcf6RZNReNVsXeys-L7-6" value="Модуль страниц показа информации" style="shape=module;align=left;spacingLeft=20;align=center;verticalAlign=top;whiteSpace=wrap;html=1;" vertex="1" parent="1">
          <mxGeometry x="180" y="425" width="130" height="55" as="geometry" />
        </mxCell>
        <mxCell id="IVcf6RZNReNVsXeys-L7-7" value="Модуль страниц редактирования информации" style="shape=module;align=left;spacingLeft=20;align=center;verticalAlign=top;whiteSpace=wrap;html=1;" vertex="1" parent="1">
          <mxGeometry x="490" y="420" width="140" height="60" as="geometry" />
        </mxCell>
        <mxCell id="IVcf6RZNReNVsXeys-L7-8" value="Модуль сервера обработчика запросов" style="shape=module;align=left;spacingLeft=20;align=center;verticalAlign=top;whiteSpace=wrap;html=1;" vertex="1" parent="1">
          <mxGeometry x="334" y="550" width="160" height="50" as="geometry" />
        </mxCell>
        <mxCell id="IVcf6RZNReNVsXeys-L7-9" value="Модуль База данных" style="shape=module;align=left;spacingLeft=20;align=center;verticalAlign=top;whiteSpace=wrap;html=1;" vertex="1" parent="1">
          <mxGeometry x="369" y="660" width="131" height="50" as="geometry" />
        </mxCell>
        <mxCell id="IVcf6RZNReNVsXeys-L7-10" value="" style="endArrow=classic;html=1;rounded=0;entryX=0.5;entryY=0;entryDx=0;entryDy=0;" edge="1" parent="1" source="IVcf6RZNReNVsXeys-L7-1" target="IVcf6RZNReNVsXeys-L7-2">
          <mxGeometry width="50" height="50" relative="1" as="geometry">
            <mxPoint x="420" y="160" as="sourcePoint" />
            <mxPoint x="420" y="180.71067811865476" as="targetPoint" />
          </mxGeometry>
        </mxCell>
        <mxCell id="IVcf6RZNReNVsXeys-L7-11" value="" style="endArrow=classic;html=1;rounded=0;entryX=1;entryY=0;entryDx=0;entryDy=0;exitX=0.5;exitY=1;exitDx=0;exitDy=0;" edge="1" parent="1" source="IVcf6RZNReNVsXeys-L7-2" target="IVcf6RZNReNVsXeys-L7-3">
          <mxGeometry width="50" height="50" relative="1" as="geometry">
            <mxPoint x="430" y="120" as="sourcePoint" />
            <mxPoint x="429" y="200" as="targetPoint" />
          </mxGeometry>
        </mxCell>
        <mxCell id="IVcf6RZNReNVsXeys-L7-12" value="" style="endArrow=classic;html=1;rounded=0;entryX=0.5;entryY=0;entryDx=0;entryDy=0;exitX=0.5;exitY=1;exitDx=0;exitDy=0;" edge="1" parent="1" source="IVcf6RZNReNVsXeys-L7-2" target="IVcf6RZNReNVsXeys-L7-4">
          <mxGeometry width="50" height="50" relative="1" as="geometry">
            <mxPoint x="429" y="250" as="sourcePoint" />
            <mxPoint x="290" y="300" as="targetPoint" />
          </mxGeometry>
        </mxCell>
        <mxCell id="IVcf6RZNReNVsXeys-L7-13" value="" style="endArrow=classic;html=1;rounded=0;entryX=0.5;entryY=0;entryDx=0;entryDy=0;exitX=0.5;exitY=1;exitDx=0;exitDy=0;" edge="1" parent="1" source="IVcf6RZNReNVsXeys-L7-2" target="IVcf6RZNReNVsXeys-L7-5">
          <mxGeometry width="50" height="50" relative="1" as="geometry">
            <mxPoint x="429" y="250" as="sourcePoint" />
            <mxPoint x="429" y="300" as="targetPoint" />
          </mxGeometry>
        </mxCell>
        <mxCell id="IVcf6RZNReNVsXeys-L7-14" value="" style="endArrow=classic;startArrow=classic;html=1;rounded=0;entryX=0.25;entryY=1;entryDx=0;entryDy=0;exitX=1;exitY=0;exitDx=0;exitDy=0;" edge="1" parent="1" source="IVcf6RZNReNVsXeys-L7-6" target="IVcf6RZNReNVsXeys-L7-4">
          <mxGeometry width="50" height="50" relative="1" as="geometry">
            <mxPoint x="370" y="440" as="sourcePoint" />
            <mxPoint x="420" y="390" as="targetPoint" />
          </mxGeometry>
        </mxCell>
        <mxCell id="IVcf6RZNReNVsXeys-L7-15" value="" style="endArrow=classic;startArrow=classic;html=1;rounded=0;entryX=0.5;entryY=1;entryDx=0;entryDy=0;exitX=0.5;exitY=0;exitDx=0;exitDy=0;" edge="1" parent="1" source="IVcf6RZNReNVsXeys-L7-6" target="IVcf6RZNReNVsXeys-L7-3">
          <mxGeometry width="50" height="50" relative="1" as="geometry">
            <mxPoint x="320" y="435" as="sourcePoint" />
            <mxPoint x="397" y="360" as="targetPoint" />
          </mxGeometry>
        </mxCell>
        <mxCell id="IVcf6RZNReNVsXeys-L7-16" value="" style="endArrow=classic;startArrow=classic;html=1;rounded=0;entryX=0;entryY=1;entryDx=10;entryDy=0;exitX=1;exitY=0.5;exitDx=0;exitDy=0;entryPerimeter=0;" edge="1" parent="1" source="IVcf6RZNReNVsXeys-L7-6" target="IVcf6RZNReNVsXeys-L7-5">
          <mxGeometry width="50" height="50" relative="1" as="geometry">
            <mxPoint x="255" y="435" as="sourcePoint" />
            <mxPoint x="225" y="360" as="targetPoint" />
          </mxGeometry>
        </mxCell>
        <mxCell id="IVcf6RZNReNVsXeys-L7-17" value="" style="endArrow=classic;startArrow=classic;html=1;rounded=0;entryX=0.5;entryY=1;entryDx=0;entryDy=0;exitX=0.5;exitY=0;exitDx=0;exitDy=0;" edge="1" parent="1" source="IVcf6RZNReNVsXeys-L7-7" target="IVcf6RZNReNVsXeys-L7-5">
          <mxGeometry width="50" height="50" relative="1" as="geometry">
            <mxPoint x="320" y="463" as="sourcePoint" />
            <mxPoint x="570" y="360" as="targetPoint" />
          </mxGeometry>
        </mxCell>
        <mxCell id="IVcf6RZNReNVsXeys-L7-18" value="" style="endArrow=classic;startArrow=classic;html=1;rounded=0;entryX=0.5;entryY=1;entryDx=0;entryDy=0;exitX=0.75;exitY=0;exitDx=0;exitDy=0;" edge="1" parent="1" source="IVcf6RZNReNVsXeys-L7-8" target="IVcf6RZNReNVsXeys-L7-7">
          <mxGeometry width="50" height="50" relative="1" as="geometry">
            <mxPoint x="570" y="430" as="sourcePoint" />
            <mxPoint x="625" y="360" as="targetPoint" />
          </mxGeometry>
        </mxCell>
        <mxCell id="IVcf6RZNReNVsXeys-L7-19" value="" style="endArrow=classic;startArrow=classic;html=1;rounded=0;entryX=0.5;entryY=1;entryDx=0;entryDy=0;exitX=0;exitY=0;exitDx=10;exitDy=0;exitPerimeter=0;" edge="1" parent="1" source="IVcf6RZNReNVsXeys-L7-8" target="IVcf6RZNReNVsXeys-L7-6">
          <mxGeometry width="50" height="50" relative="1" as="geometry">
            <mxPoint x="464" y="560" as="sourcePoint" />
            <mxPoint x="570" y="490" as="targetPoint" />
          </mxGeometry>
        </mxCell>
        <mxCell id="IVcf6RZNReNVsXeys-L7-20" value="" style="endArrow=classic;startArrow=classic;html=1;rounded=0;entryX=0.5;entryY=0;entryDx=0;entryDy=0;exitX=0.5;exitY=1;exitDx=0;exitDy=0;" edge="1" parent="1" source="IVcf6RZNReNVsXeys-L7-8" target="IVcf6RZNReNVsXeys-L7-9">
          <mxGeometry width="50" height="50" relative="1" as="geometry">
            <mxPoint x="474" y="570" as="sourcePoint" />
            <mxPoint x="580" y="500" as="targetPoint" />
          </mxGeometry>
        </mxCell>
        <mxCell id="IVcf6RZNReNVsXeys-L7-21" value="" style="endArrow=classic;startArrow=classic;html=1;rounded=0;entryX=1;entryY=0.5;entryDx=0;entryDy=0;exitX=1;exitY=0.5;exitDx=0;exitDy=0;" edge="1" parent="1" source="IVcf6RZNReNVsXeys-L7-8" target="IVcf6RZNReNVsXeys-L7-2">
          <mxGeometry width="50" height="50" relative="1" as="geometry">
            <mxPoint x="484" y="580" as="sourcePoint" />
            <mxPoint x="590" y="510" as="targetPoint" />
            <Array as="points">
              <mxPoint x="720" y="575" />
              <mxPoint x="720" y="220" />
            </Array>
          </mxGeometry>
        </mxCell>
      </root>
    </mxGraphModel>
  </diagram>
</mxfile>
